<?xml version="1.0" standalone="no"?>
<svg xmlns:xlink="http://www.w3.org/1999/xlink" xmlns="http://www.w3.org/2000/svg" width="1200" height="1200" viewBox="0 0 29 29" shape-rendering="crispEdges"><path fill="#c46868" d="M0 0h29v29H0z"/><path stroke="#000000" d="M4 4.5h7m5 0h1m1 0h7M4 5.5h1m5 0h1m4 0h1m2 0h1m5 0h1M4 6.5h1m1 0h3m1 0h1m1 0h1m1 0h1m3 0h1m1 0h3m1 0h1M4 7.5h1m1 0h3m1 0h1m1 0h5m1 0h1m1 0h3m1 0h1M4 8.5h1m1 0h3m1 0h1m1 0h1m2 0h2m1 0h1m1 0h3m1 0h1M4 9.5h1m5 0h1m1 0h1m1 0h1m1 0h1m1 0h1m5 0h1M4 10.5h7m1 0h1m1 0h1m1 0h1m1 0h7M12 11.5h2m1 0h2M4 12.5h1m1 0h5m3 0h1m1 0h1m1 0h5M4 13.5h1m1 0h1m1 0h1m7 0h1m2 0h1m1 0h2m1 0h1M4 14.5h3m2 0h2m4 0h1m1 0h1m2 0h1m1 0h2M6 15.5h1m2 0h1m1 0h4m4 0h4m1 0h1M4 16.5h1m1 0h1m3 0h1m1 0h2m1 0h1m1 0h1m2 0h2m1 0h1M12 17.5h1m1 0h5m3 0h1m1 0h1M4 18.5h7m5 0h1m1 0h2m1 0h1m1 0h1M4 19.5h1m5 0h1m1 0h2m1 0h4m2 0h2M4 20.5h1m1 0h3m1 0h1m1 0h1m3 0h1m2 0h1m3 0h1M4 21.5h1m1 0h3m1 0h1m1 0h1m3 0h1m2 0h1m1 0h2M4 22.5h1m1 0h3m1 0h1m1 0h2m1 0h1m1 0h1m2 0h1M4 23.5h1m5 0h1m8 0h2m1 0h1M4 24.5h7m1 0h1m1 0h2m1 0h1m2 0h1m1 0h2"/></svg>
